<!-- Generated by IcoMoon.io -->
<svg version="1.1" xmlns="http://www.w3.org/2000/svg" width="24" height="24" viewBox="0 0 24 24">
<title>basket</title>
<path d="M23.105 8.569c0-0.3-0.1-0.6-0.3-0.8s-0.4-0.4-0.7-0.6c-0.3-0.1-0.6-0.2-0.9-0.2h-3.7l-2.5-4.5c-0.3-0.6-1.1-0.8-1.7-0.5s-0.8 1.1-0.5 1.7l1.8 3.3h-5.6l1.8-3.3c0.3-0.6 0.1-1.4-0.5-1.7-0.5-0.3-1.2-0.1-1.6 0.5l-2.5 4.5h-3.4c-0.3 0-0.6 0.1-0.9 0.2-0.3 0.2-0.5 0.4-0.7 0.6s-0.3 0.5-0.3 0.8c-0.1 0.3-0.1 0.6 0 0.9l2.6 10.6c0.1 0.6 0.5 1.1 0.9 1.5 0.5 0.4 1.1 0.6 1.6 0.6 0 0 0 0 0 0h11.8c0 0 0 0 0 0 0.6 0 1.2-0.2 1.6-0.6 0.5-0.4 0.8-0.9 0.9-1.5l2.7-10.6c0.2-0.3 0.2-0.6 0.1-0.9zM18.105 19.469c-0.1 0-0.1 0 0 0-0.1 0.1-0.1 0.1-0.2 0.1 0 0 0 0 0 0h-11.8c0 0-0.1 0-0.1 0s-0.1-0.1-0.1-0.1l-2.4-10h17.1l-2.5 10z"></path>
</svg>
