<!-- Generated by IcoMoon.io -->
<svg version="1.1" xmlns="http://www.w3.org/2000/svg" width="32" height="24" viewBox="0 0 32 24">
<title>chat</title>
<path d="M26.739 10.517c-0.198-0.062-0.408 0.046-0.471 0.244s0.046 0.408 0.244 0.471c2.931 0.934 4.238 2.326 4.238 4.518 0 1.949-1.778 3.462-2.837 4.191-0.102 0.070-0.163 0.185-0.163 0.309v2.867c-0.547-0.204-1.502-0.667-2.344-1.616-0.088-0.098-0.221-0.143-0.351-0.119-0.214 0.041-0.432 0.1-0.653 0.159-0.383 0.103-0.777 0.209-1.151 0.209-1.926 0-3.274-0.414-4.653-1.427-0.168-0.123-0.401-0.086-0.524 0.080s-0.087 0.401 0.079 0.524c1.52 1.117 2.997 1.573 5.098 1.573 0.473 0 0.917-0.119 1.346-0.235 0.133-0.037 0.266-0.073 0.398-0.104 1.402 1.481 2.987 1.817 3.056 1.831 0.025 0.005 0.050 0.008 0.075 0.008 0.085 0 0.17-0.029 0.237-0.085 0.088-0.071 0.138-0.178 0.138-0.29v-3.179c1.937-1.381 3-3.043 3-4.696 0-2.536-1.513-4.198-4.761-5.233zM24.75 10.125c0-5.772-5.264-10.125-12.242-10.125-7.014 0-12.508 4.448-12.508 10.127 0 3.404 2.408 5.843 4.5 7.319v4.977c0 0.128 0.065 0.245 0.171 0.315 0.062 0.040 0.133 0.060 0.204 0.060 0.052 0 0.104-0.011 0.154-0.033 0.109-0.049 2.669-1.212 4.859-3.607 0.949 0.176 2.022 0.346 2.995 0.346 7.097 0 11.866-3.77 11.866-9.379zM12.883 18.754c-0.982 0-2.099-0.188-3.062-0.372-0.13-0.023-0.263 0.021-0.351 0.119-1.537 1.734-3.344 2.836-4.22 3.311v-4.562c0-0.124-0.061-0.239-0.163-0.309-1.978-1.361-4.337-3.647-4.337-6.815 0-5.258 5.165-9.377 11.758-9.377 6.552 0 11.492 4.030 11.492 9.375 0 5.161-4.468 8.629-11.117 8.629zM12.375 8.625c-0.827 0-1.5 0.673-1.5 1.5s0.673 1.5 1.5 1.5 1.5-0.673 1.5-1.5-0.673-1.5-1.5-1.5zM12.375 10.875c-0.413 0-0.75-0.336-0.75-0.75s0.337-0.75 0.75-0.75 0.75 0.336 0.75 0.75-0.337 0.75-0.75 0.75zM17.625 8.625c-0.827 0-1.5 0.673-1.5 1.5s0.673 1.5 1.5 1.5 1.5-0.673 1.5-1.5-0.673-1.5-1.5-1.5zM17.625 10.875c-0.413 0-0.75-0.336-0.75-0.75s0.337-0.75 0.75-0.75 0.75 0.336 0.75 0.75-0.337 0.75-0.75 0.75zM7.125 8.696c-0.827 0-1.5 0.673-1.5 1.5s0.673 1.5 1.5 1.5 1.5-0.673 1.5-1.5-0.673-1.5-1.5-1.5zM7.125 10.946c-0.413 0-0.75-0.336-0.75-0.75s0.337-0.75 0.75-0.75 0.75 0.336 0.75 0.75-0.337 0.75-0.75 0.75z"></path>
</svg>
