<svg height="24" viewBox="0 0 24 24" width="24" xmlns="http://www.w3.org/2000/svg">
  <title>compare</title>
  <path
    d="M9.671 11.506h-3.812c-1.835 0-3.247-1.412-3.247-3.247v-3.812c0-1.835 1.412-3.247 3.247-3.247h3.812c1.835 0 3.247 1.412 3.247 3.247v3.812c0 1.694-1.553 3.247-3.247 3.247zM5.859 3.882c-0.282 0-0.424 0.282-0.424 0.565v3.812c0 0.282 0.141 0.424 0.424 0.424h3.812c0.282 0 0.424-0.141 0.424-0.424v-3.812c0-0.282-0.141-0.424-0.424-0.424h-3.812z"></path>
  <path
    d="M9.671 22.8h-3.812c-1.835 0-3.247-1.412-3.247-3.247v-3.812c0-1.835 1.412-3.247 3.247-3.247h3.812c1.835 0 3.247 1.412 3.247 3.247v3.812c0 1.694-1.553 3.247-3.247 3.247zM5.859 15.176c-0.282 0-0.424 0.141-0.424 0.424v3.812c0 0.282 0.141 0.424 0.424 0.424h3.812c0.282 0 0.424-0.141 0.424-0.424v-3.812c0-0.282-0.141-0.424-0.424-0.424h-3.812z"></path>
  <path
    d="M19.976 17.153h-5.647c-0.847 0-1.412-0.565-1.412-1.412s0.565-1.412 1.412-1.412h5.647c0.847 0 1.412 0.565 1.412 1.412s-0.706 1.412-1.412 1.412z"></path>
  <path
    d="M18.141 20.824h-3.812c-0.847 0-1.412-0.565-1.412-1.412s0.565-1.412 1.412-1.412h3.812c0.847 0 1.412 0.565 1.412 1.412s-0.706 1.412-1.412 1.412z"></path>
  <path
    d="M18.141 9.529h-3.812c-0.847 0-1.412-0.565-1.412-1.412s0.565-1.412 1.412-1.412h3.812c0.847 0 1.412 0.565 1.412 1.412s-0.706 1.412-1.412 1.412z"></path>
  <path
    d="M19.976 5.859h-5.647c-0.847 0-1.412-0.565-1.412-1.412s0.565-1.412 1.412-1.412h5.647c0.847 0 1.412 0.565 1.412 1.412s-0.706 1.412-1.412 1.412z"></path>
</svg>
