<!-- Generated by IcoMoon.io -->
<svg version="1.1" xmlns="http://www.w3.org/2000/svg" width="24" height="24" viewBox="0 0 24 24">
<title>docs</title>
<path d="M19.5 21.375v-15.75h-0.379c-0.619 0-1.121-0.499-1.121-1.125 0-0.621 0.508-1.125 1.121-1.125h0.379v-0.75h-13.131c-1.032 0-1.869 0.832-1.869 1.875v14.625c0 1.242 1.007 2.25 2.246 2.25h12.754zM18.75 6.375v14.25h-10.5v-14.25h3v8.25l2.25-2.25 2.25 2.25v-8.25h3zM7.5 20.625h-0.754c-0.827 0-1.496-0.669-1.496-1.493v-13.13c0.312 0.235 0.7 0.374 1.119 0.374h1.131v14.25zM6.37 3.375h11.255c0 0-0.375 0.552-0.375 1.105s0.375 1.145 0.375 1.145h-11.255c-0.62 0-1.12-0.504-1.12-1.125 0-0.626 0.501-1.125 1.12-1.125zM12 6.375h3v6.45l-1.5-1.5-1.5 1.5v-6.45z"></path>
</svg>
