<!-- Generated by IcoMoon.io -->
<svg version="1.1" xmlns="http://www.w3.org/2000/svg" width="24" height="24" viewBox="0 0 24 24">
<title>edit</title>
<path d="M11.955 16.714l1.554-1.554-2.036-2.036-1.554 1.554v0.75h1.286v1.286h0.75zM17.848 7.071c-0.121-0.121-0.321-0.107-0.442 0.013l-4.688 4.688c-0.121 0.121-0.134 0.321-0.013 0.442s0.321 0.107 0.442-0.013l4.688-4.687c0.121-0.121 0.134-0.321 0.013-0.442zM18.919 15.027v2.545c0 2.129-1.728 3.857-3.857 3.857h-11.143c-2.129 0-3.857-1.728-3.857-3.857v-11.143c0-2.129 1.728-3.857 3.857-3.857h11.143c0.536 0 1.071 0.107 1.567 0.335 0.121 0.054 0.214 0.174 0.241 0.308 0.027 0.147-0.013 0.281-0.121 0.388l-0.656 0.656c-0.121 0.121-0.281 0.161-0.429 0.107-0.201-0.054-0.402-0.080-0.603-0.080h-11.143c-1.179 0-2.143 0.964-2.143 2.143v11.143c0 1.179 0.964 2.143 2.143 2.143h11.143c1.179 0 2.143-0.964 2.143-2.143v-1.688c0-0.107 0.040-0.214 0.121-0.295l0.857-0.857c0.134-0.134 0.308-0.161 0.469-0.094s0.268 0.214 0.268 0.388zM17.634 5.143l3.857 3.857-9 9h-3.857v-3.857zM23.58 6.911l-1.232 1.232-3.857-3.857 1.232-1.232c0.496-0.496 1.326-0.496 1.821 0l2.036 2.036c0.496 0.496 0.496 1.326 0 1.821z"></path>
</svg>
