<!-- Generated by IcoMoon.io -->
<svg version="1.1" xmlns="http://www.w3.org/2000/svg" width="768" height="768" viewBox="0 0 768 768">
<title></title>
<g id="icomoon-ignore">
</g>
<path fill="#e4405f" d="M384 0c-104.32 0-117.344 0.48-158.304 2.304-40.896 1.92-68.736 8.352-93.216 17.856-25.248 9.792-46.688 22.944-68.032 44.288s-34.528 42.752-44.288 68.032c-9.504 24.48-15.968 52.32-17.856 93.216-1.92 40.96-2.304 53.984-2.304 158.304s0.48 117.344 2.304 158.304c1.92 40.864 8.352 68.736 17.856 93.216 9.792 25.216 22.944 46.688 44.288 68.032 21.344 21.312 42.752 34.528 68.032 44.288 24.512 9.472 52.352 15.968 93.216 17.856 40.96 1.92 53.984 2.304 158.304 2.304s117.344-0.48 158.304-2.304c40.864-1.92 68.736-8.384 93.216-17.856 25.216-9.792 46.688-22.976 68.032-44.288 21.312-21.344 34.528-42.72 44.288-68.032 9.472-24.48 15.968-52.352 17.856-93.216 1.92-40.96 2.304-53.984 2.304-158.304s-0.48-117.344-2.304-158.304c-1.92-40.864-8.384-68.768-17.856-93.216-9.792-25.248-22.976-46.688-44.288-68.032-21.344-21.344-42.72-34.528-68.032-44.288-24.48-9.504-52.352-15.968-93.216-17.856-40.96-1.92-53.984-2.304-158.304-2.304zM384 69.12c102.496 0 114.72 0.512 155.2 2.272 37.44 1.76 57.76 7.968 71.264 13.28 17.984 6.944 30.72 15.264 44.224 28.672 13.408 13.44 21.728 26.208 28.672 44.192 5.248 13.504 11.52 33.824 13.216 71.264 1.824 40.512 2.24 52.672 2.24 155.2s-0.48 114.72-2.368 155.2c-1.952 37.44-8.192 57.76-13.472 71.264-7.168 17.984-15.328 30.72-28.768 44.224-13.408 13.408-26.368 21.728-44.16 28.672-13.44 5.248-34.080 11.52-71.52 13.216-40.768 1.824-52.768 2.24-155.488 2.24-102.752 0-114.752-0.48-155.488-2.368-37.472-1.952-58.112-8.192-71.552-13.472-18.208-7.168-30.72-15.328-44.128-28.768-13.472-13.408-22.080-26.368-28.8-44.16-5.28-13.44-11.488-34.080-13.44-71.52-1.44-40.32-1.952-52.768-1.952-155.008 0-102.272 0.512-114.752 1.952-155.552 1.952-37.44 8.16-58.048 13.44-71.488 6.72-18.24 15.328-30.72 28.8-44.192 13.408-13.408 25.92-22.048 44.128-28.736 13.44-5.312 33.632-11.552 71.072-13.472 40.8-1.44 52.8-1.92 155.488-1.92zM384 186.816c-108.96 0-197.184 88.32-197.184 197.184 0 108.96 88.32 197.184 197.184 197.184 108.96 0 197.184-88.32 197.184-197.184 0-108.96-88.32-197.184-197.184-197.184zM384 512c-70.72 0-128-57.28-128-128s57.28-128 128-128 128 57.28 128 128-57.28 128-128 128zM635.072 179.040c0 25.44-20.672 46.080-46.080 46.080-25.44 0-46.080-20.672-46.080-46.080s20.672-46.048 46.080-46.048c25.376-0.032 46.080 20.64 46.080 46.048z"></path>
</svg>
