<!-- Generated by IcoMoon.io -->
<svg version="1.1" xmlns="http://www.w3.org/2000/svg" width="24" height="24" viewBox="0 0 24 24">
<title>key</title>
<path d="M16.502 0c-4.142 0-7.5 3.358-7.5 7.5 0 0.964 0.202 1.876 0.535 2.722l-9.112 9.111c-0.263 0.264-0.426 0.515-0.426 0.917v2.25c0 0.803 0.697 1.5 1.5 1.5h2.25c0.402 0 0.656-0.161 0.919-0.423l1.076-1.077h1.757c0.828 0 1.5-0.672 1.5-1.5v-1.5h1.5c0.828 0 1.5-0.672 1.5-1.5v-1.758l1.777-1.778c0.847 0.334 1.758 0.536 2.723 0.536 4.141 0 7.5-3.358 7.5-7.5s-3.359-7.5-7.5-7.5zM16.502 13.5c-1.11 0-2.139-0.322-3.031-0.849l-0.258 0.257-2.272 2.273c-0.281 0.281-0.44 0.662-0.44 1.060v1.758h-1.5c-0.828 0-1.5 0.671-1.5 1.5v1.5h-1.757c-0.397 0-0.779 0.158-1.060 0.439l-1.064 1.064-2.119-0.003-0.002-2.137 8.749-8.733c0 0 0 0.001 0.001 0.002l1.102-1.102c-0.527-0.892-0.849-1.92-0.849-3.030 0-3.314 2.687-6 6-6s6 2.686 6 6-2.686 6.001-5.999 6.001zM20.864 6.179c-0.841-1.171-1.864-2.194-3.041-3.041-0.191-0.139-0.439-0.173-0.662-0.095-1.042 0.367-1.755 1.079-2.12 2.121-0.028 0.078-0.041 0.159-0.041 0.239 0 0.149 0.047 0.297 0.136 0.422 0.844 1.173 1.866 2.196 3.040 3.040 0.192 0.138 0.438 0.173 0.661 0.096 1.043-0.365 1.756-1.079 2.122-2.121 0.028-0.078 0.041-0.159 0.041-0.239-0.001-0.149-0.048-0.297-0.137-0.422zM18.614 8.258c-1.109-0.797-2.074-1.763-2.865-2.845 0.29-0.827 0.833-1.37 1.636-1.666 1.109 0.799 2.073 1.762 2.862 2.858-0.293 0.821-0.835 1.361-1.634 1.652z"></path>
</svg>
