<!-- Generated by IcoMoon.io -->
<svg version="1.1" xmlns="http://www.w3.org/2000/svg" width="24" height="24" viewBox="0 0 24 24">
<title>mail</title>
<path d="M22.286 19.286v-10.286c-0.281 0.321-0.589 0.616-0.924 0.884-1.915 1.473-3.844 2.973-5.705 4.527-1.004 0.844-2.25 1.875-3.643 1.875h-0.027c-1.393 0-2.638-1.031-3.643-1.875-1.862-1.554-3.79-3.054-5.705-4.527-0.335-0.268-0.643-0.563-0.924-0.884v10.286c0 0.228 0.201 0.429 0.429 0.429h19.714c0.228 0 0.429-0.201 0.429-0.429zM22.286 5.21c0-0.335 0.080-0.924-0.429-0.924h-19.714c-0.228 0-0.429 0.201-0.429 0.429 0 1.527 0.763 2.853 1.969 3.804 1.795 1.406 3.589 2.826 5.371 4.246 0.71 0.576 1.996 1.808 2.933 1.808h0.027c0.938 0 2.223-1.232 2.933-1.808 1.781-1.42 3.576-2.839 5.371-4.246 0.871-0.683 1.969-2.17 1.969-3.308zM24 4.714v14.571c0 1.179-0.964 2.143-2.143 2.143h-19.714c-1.179 0-2.143-0.964-2.143-2.143v-14.571c0-1.179 0.964-2.143 2.143-2.143h19.714c1.179 0 2.143 0.964 2.143 2.143z"></path>
</svg>
