<!-- Generated by IcoMoon.io -->
<svg version="1.1" xmlns="http://www.w3.org/2000/svg" width="24" height="24" viewBox="0 0 24 24">
<title>notification</title>
<path d="M4.8 9.591c0-0.001 0-0.002 0-0.003 0-3.13 1.997-5.793 4.786-6.785l0.050-0.016c-0.019-0.114-0.030-0.245-0.030-0.378 0-1.325 1.075-2.4 2.4-2.4s2.4 1.075 2.4 2.4c0 0.134-0.011 0.265-0.032 0.392l0.002-0.014c2.833 1.011 4.824 3.672 4.824 6.797 0 0.003 0 0.005 0 0.008v-0 7.2l3.6 2.4v1.2h-21.6v-1.2l3.6-2.4v-7.2zM14.4 21.591c0 1.325-1.075 2.4-2.4 2.4s-2.4-1.075-2.4-2.4v0h4.8z"></path>
</svg>
