<!-- Generated by IcoMoon.io -->
<svg version="1.1" xmlns="http://www.w3.org/2000/svg" width="24" height="24" viewBox="0 0 24 24">
<title>product</title>
<path d="M-0 22c0 1.105 0.895 2 2 2h20c1.105 0 2-0.895 2-2l-0-12.5c0-1.105-0.895-2-2-2h-2v-2.25c0-2.9-2.35-5.25-5.25-5.25-1.185 0-2.275 0.39-3.15 1.050-0.71-0.35-1.505-0.55-2.35-0.55-2.9 0-5.25 2.35-5.25 5.25l0.005 1.75h-2.005c-1.105 0-2 0.895-2 2v12.5zM17.5 7.5h-5.495l-0.005-2.25c0-1.52 1.23-2.75 2.75-2.75s2.75 1.23 2.75 2.75v2.25zM9.505 7.5h-3l-0.005-1.75c0-1.52 1.23-2.75 2.75-2.75 0.245 0 0.485 0.031 0.71 0.095-0.295 0.655-0.46 1.385-0.46 2.155l0.005 2.25zM9.5 10.75c0-0.69 0.56-1.25 1.25-1.25s1.25 0.56 1.25 1.25-0.56 1.25-1.25 1.25-1.25-0.56-1.25-1.25zM17.5 10.75c0-0.69 0.56-1.25 1.25-1.25s1.25 0.56 1.25 1.25-0.56 1.25-1.25 1.25-1.25-0.56-1.25-1.25zM4.5 11v9.5c0 0.55-0.45 1-1 1s-1-0.45-1-1l-0-9.5c0-0.55 0.45-1 1-1s1 0.45 1 1z"></path>
</svg>
