<!-- Generated by IcoMoon.io -->
<svg version="1.1" xmlns="http://www.w3.org/2000/svg" width="24" height="24" viewBox="0 0 24 24">
<title>role</title>
<path d="M21 0h-18c-1.237 0-2.25 1.013-2.25 2.25v19.5c0 1.237 1.013 2.25 2.25 2.25h18c1.237 0 2.25-1.013 2.25-2.25v-19.5c0-1.237-1.013-2.25-2.25-2.25zM20.25 21h-16.5v-18h16.5v18zM6.75 13.5h10.5v1.5h-10.5zM6.75 16.5h10.5v1.5h-10.5zM8.25 6.75c0-1.243 1.007-2.25 2.25-2.25s2.25 1.007 2.25 2.25c0 1.243-1.007 2.25-2.25 2.25s-2.25-1.007-2.25-2.25zM12 9h-3c-1.238 0-2.25 0.675-2.25 1.5v1.5h7.5v-1.5c0-0.825-1.013-1.5-2.25-1.5z"></path>
</svg>
