<!-- Generated by IcoMoon.io -->
<svg version="1.1" xmlns="http://www.w3.org/2000/svg" width="24" height="24" viewBox="0 0 24 24">
<title>settings</title>
<path d="M24 13.477v-3l-3.586-1.494c-0.1-0.281-0.205-0.553-0.334-0.82l1.447-3.604-2.122-2.121-3.572 1.471c-0.272-0.132-0.551-0.243-0.838-0.346l-1.52-3.563h-3l-1.483 3.55c-0.298 0.106-0.586 0.217-0.87 0.352l-3.566-1.433-2.121 2.121 1.454 3.533c-0.141 0.29-0.255 0.586-0.364 0.891l-3.527 1.508v3l3.53 1.471c0.109 0.305 0.226 0.601 0.366 0.891l-1.426 3.557 2.121 2.121 3.542-1.459c0.284 0.135 0.574 0.243 0.873 0.346l1.517 3.55h3l1.485-3.569c0.284-0.106 0.566-0.217 0.835-0.346l3.598 1.442 2.121-2.121-1.477-3.58c0.126-0.269 0.229-0.542 0.329-0.821l3.586-1.529zM11.977 16.5c-2.484 0-4.5-2.016-4.5-4.5s2.016-4.5 4.5-4.5 4.5 2.016 4.5 4.5-2.016 4.5-4.5 4.5z"></path>
</svg>
