<!-- Generated by IcoMoon.io -->
<svg version="1.1" xmlns="http://www.w3.org/2000/svg" width="24" height="24" viewBox="0 0 24 24">
<title>shop</title>
<path d="M23.55 8.4l-2.25-2.998c-0.088-0.118-0.192-0.22-0.3-0.317v-3.584c0-0.828-0.672-1.5-1.5-1.5h-15c-0.829 0-1.5 0.672-1.5 1.5v3.585c-0.108 0.097-0.212 0.198-0.3 0.315l-2.249 2.999c-0.291 0.387-0.451 0.866-0.451 1.351v0.75c0 1.241 1.010 2.25 2.25 2.25v0 9.75c0 0.828 0.672 1.5 1.5 1.5h16.5c0.828 0 1.5-0.672 1.5-1.5v-9.75c1.241 0 2.25-1.009 2.25-2.25v-0.75c0-0.485-0.16-0.964-0.45-1.35zM19.5 1.5v3h-15v-3h15zM7.645 11.25h-3.142l3-5.25h1.642l-1.5 5.25zM9.925 6h1.7v5.25h-3.2l1.5-5.25zM12.375 6h1.699l1.5 5.25h-3.199v-5.25zM14.854 6h1.642l3 5.25h-3.142l-1.5-5.25zM1.5 10.5v-0.75c0-0.163 0.052-0.32 0.15-0.45l2.25-3c0.142-0.189 0.364-0.3 0.6-0.3h2.139l-3 5.25h-1.389c-0.414 0-0.75-0.335-0.75-0.75zM15 22.5h-5.625v-7.5h5.625v7.5zM20.25 22.5h-4.5v-7.5c0-0.415-0.337-0.75-0.75-0.75h-5.625c-0.414 0-0.75 0.335-0.75 0.75v7.5h-4.875v-9.75h16.5v9.75zM22.5 10.5c0 0.415-0.335 0.75-0.75 0.75h-1.39l-3-5.25h2.14c0.236 0 0.458 0.111 0.599 0.3l2.25 3c0.098 0.13 0.151 0.287 0.151 0.45v0.75z"></path>
</svg>
