<!-- Generated by IcoMoon.io -->
<svg version="1.1" xmlns="http://www.w3.org/2000/svg" width="32" height="24" viewBox="0 0 32 24">
<title>tags</title>
<path d="M30.375 0h-7.5c-0.518 0-1.181 0.282-1.535 0.652l-0.997 1.005c-0.146 0.147-0.144 0.385 0.003 0.53 0.145 0.145 0.385 0.145 0.53-0.002l1-1.010c0.214-0.223 0.69-0.426 0.999-0.426h7.5c0.206 0 0.375 0.168 0.375 0.375v7.537c0 0.308-0.203 0.784-0.43 1.003l-10.561 10.479c-0.151 0.143-0.401 0.14-0.548-0.006l-1.986-1.987c-0.146-0.146-0.384-0.146-0.53 0s-0.146 0.384 0 0.53l1.986 1.987c0.221 0.22 0.513 0.331 0.806 0.331 0.287 0 0.574-0.106 0.796-0.318l10.562-10.48c0.373-0.358 0.656-1.021 0.656-1.539v-7.537c0-0.62-0.505-1.125-1.125-1.125zM29.278 3.75c0-0.827-0.673-1.5-1.5-1.5s-1.5 0.673-1.5 1.5 0.673 1.5 1.5 1.5 1.5-0.673 1.5-1.5zM27.028 3.75c0-0.413 0.336-0.75 0.75-0.75s0.75 0.337 0.75 0.75-0.336 0.75-0.75 0.75-0.75-0.337-0.75-0.75zM12.346 3c-0.518 0-1.18 0.282-1.536 0.652l-10.495 10.598c-0.426 0.444-0.42 1.16 0.016 1.596l7.821 7.821c0.214 0.215 0.5 0.332 0.807 0.332 0.297 0 0.577-0.112 0.794-0.319l10.561-10.479c0.374-0.359 0.657-1.021 0.657-1.54v-7.537c0-0.62-0.505-1.125-1.125-1.125h-7.5zM20.25 4.125v7.537c0 0.309-0.232 0.784-0.459 1.003l-10.561 10.479c-0.146 0.139-0.405 0.136-0.547-0.006l-7.822-7.82c-0.146-0.147-0.149-0.398-0.010-0.542l10.495-10.599c0.214-0.223 0.69-0.426 0.999-0.426h7.5c0.206 0 0.404 0.168 0.404 0.375zM17.25 5.25c-0.827 0-1.5 0.673-1.5 1.5s0.673 1.5 1.5 1.5 1.5-0.673 1.5-1.5-0.673-1.5-1.5-1.5zM17.25 7.5c-0.414 0-0.75-0.337-0.75-0.75s0.336-0.75 0.75-0.75 0.75 0.337 0.75 0.75-0.336 0.75-0.75 0.75z"></path>
</svg>
