<!-- Generated by IcoMoon.io -->
<svg version="1.1" xmlns="http://www.w3.org/2000/svg" width="768" height="768" viewBox="0 0 768 768">
<title></title>
<g id="icomoon-ignore">
</g>
<path fill="#1da1f2" d="M766.512 146.224c-28.32 12.448-58.56 20.928-90.4 24.8 32.448-19.552 57.408-50.368 69.216-87.136-30.432 17.76-64.16 30.688-100.064 37.888-28.672-30.688-69.536-49.888-114.912-49.888-86.944 0-157.44 70.496-157.44 157.344 0 12.48 1.44 24.48 4.064 35.968-130.88-6.176-246.88-69.024-324.512-164.032-13.664 23.104-21.312 49.952-21.312 79.2 0 54.72 27.84 102.816 70.016 131.072-25.824-0.832-50.112-7.936-71.296-19.712v1.952c0 76.32 54.176 139.968 126.272 154.464-13.216 3.552-27.168 5.472-41.472 5.472-10.048 0-19.68-0.96-29.312-2.752 20.192 62.496 78.24 108.064 147.328 109.344-53.76 42.208-121.888 67.36-195.264 67.36-12.48 0-24.928-0.736-37.44-2.144 70.048 44.608 152.576 70.688 241.824 70.688 289.728 0 447.968-239.872 447.968-447.552 0-6.688 0-13.44-0.48-20.16 30.752-22.048 57.6-49.92 78.72-81.536z"></path>
</svg>
