<!-- Generated by IcoMoon.io -->
<svg version="1.1" xmlns="http://www.w3.org/2000/svg" width="24" height="24" viewBox="0 0 24 24">
<title>video</title>
<path d="M22.5 4.5h-0.665c-0.394 0-0.772 0.155-1.053 0.432l-2.032 2.004v-0.936c0-1.243-1.008-2.25-2.25-2.25h-14.25c-1.24 0-2.25 1.009-2.25 2.25v12c0 1.242 1.007 2.25 2.25 2.25h14.25c1.242 0 2.25-1.008 2.25-2.25v-0.916l2.032 2.004c0.281 0.277 0.659 0.432 1.053 0.432h0.665c0.828 0 1.5-0.671 1.5-1.5v-12.020c0-0.829-0.672-1.5-1.5-1.5zM2.25 18.75c-0.414 0-0.75-0.337-0.75-0.75v-12c0-0.415 0.335-0.75 0.75-0.75h14.25c0.413 0 0.75 0.336 0.75 0.75v12c0 0.413-0.337 0.75-0.75 0.75h-14.25zM22.5 18.020h-0.75l-3-3v-0.020l-0.75-0.75v-4.5l3.75-3.75h0.75v12.020z"></path>
</svg>
