<svg xmlns="http://www.w3.org/2000/svg" width="24" height="24" viewBox="0 0 24 24">
    <title>arrow-top-bottom</title>
    <path d="M16.8 9.881c-0.3 0-0.6-0.15-0.75-0.3l-4.050-4.050-3.9 3.9c-0.45 0.45-1.2 0.45-1.65 0s-0.45-1.2 0-1.65l4.050-4.050c0.75-0.75 2.1-0.75 3 0l4.050 4.050c0.45 0.6 0.45 1.2 0 1.65-0.15 0.3-0.45 0.45-0.75 0.45z"></path>
    <path d="M12 20.831c-0.6 0-1.050-0.15-1.5-0.6l-4.050-4.050c-0.45-0.6-0.45-1.2 0-1.65s1.2-0.45 1.65 0l3.9 3.9 3.9-3.9c0.45-0.45 1.2-0.45 1.65 0s0.45 1.2 0 1.65l-4.050 4.050c-0.3 0.3-0.9 0.6-1.5 0.6z"></path>
</svg>
