<!-- Generated by IcoMoon.io -->
<svg version="1.1" xmlns="http://www.w3.org/2000/svg" width="24" height="24" viewBox="0 0 24 24">
<title>category</title>
<path d="M9.802 3.526l-4.347-1.165c-0.4-0.107-0.811 0.131-0.918 0.53l-4.465 16.662c-0.107 0.401 0.131 0.812 0.531 0.919l4.346 1.165c0.4 0.107 0.811-0.131 0.919-0.53l4.465-16.663c0.106-0.4-0.13-0.811-0.531-0.919zM5.835 18.332c-0.322 1.201-1.555 1.913-2.755 1.591s-1.912-1.555-1.591-2.756 1.555-1.913 2.756-1.591c1.201 0.322 1.912 1.556 1.591 2.756zM6.696 15.118l-4.346-1.165 2.329-8.693 4.347 1.165-2.33 8.693zM14.203 16.875c-0.622 0-1.125 0.504-1.125 1.125s0.503 1.125 1.125 1.125c0.621 0 1.125-0.504 1.125-1.125s-0.504-1.125-1.125-1.125zM8.108 6.955l-2.899-0.776-0.194 0.724 2.898 0.776 0.194-0.724zM7.524 9.128l0.195-0.724-2.898-0.776-0.194 0.725 2.897 0.776zM3.941 16.709c-0.6-0.161-1.217 0.196-1.378 0.796s0.195 1.217 0.796 1.378c0.6 0.161 1.217-0.195 1.378-0.796s-0.196-1.216-0.796-1.378zM22.453 6.375h-3v0.75h3v-0.75zM22.453 9.375h-3v0.75h3v-0.75zM22.453 7.875h-3v0.75h3v-0.75zM20.953 16.875c-0.622 0-1.125 0.504-1.125 1.125s0.503 1.125 1.125 1.125c0.621 0 1.125-0.504 1.125-1.125s-0.504-1.125-1.125-1.125zM23.203 2.625h-4.5c-0.415 0-0.75 0.335-0.75 0.75v17.25c0 0.414 0.335 0.75 0.75 0.75h4.5c0.414 0 0.75-0.336 0.75-0.75v-17.25c0-0.415-0.337-0.75-0.75-0.75zM20.953 20.25c-1.243 0-2.25-1.008-2.25-2.25s1.007-2.25 2.25-2.25c1.242 0 2.25 1.007 2.25 2.25s-1.008 2.25-2.25 2.25zM23.203 14.625h-4.5v-9h4.5v9zM15.703 6.375h-3v0.75h3v-0.75zM15.703 9.375h-3v0.75h3v-0.75zM16.453 2.625h-4.5c-0.415 0-0.75 0.335-0.75 0.75v17.25c0 0.414 0.335 0.75 0.75 0.75h4.5c0.414 0 0.75-0.336 0.75-0.75v-17.25c0-0.415-0.337-0.75-0.75-0.75zM14.203 20.203c-1.243 0-2.25-1.008-2.25-2.25s1.007-2.25 2.25-2.25c1.242 0 2.25 1.007 2.25 2.25s-1.008 2.25-2.25 2.25zM16.453 14.625h-4.5v-9h4.5v9zM15.703 7.875h-3v0.75h3v-0.75zM4.239 9.8l2.897 0.776 0.195-0.724-2.898-0.776-0.194 0.724z"></path>
</svg>
