<svg xmlns="http://www.w3.org/2000/svg" width="24" height="24" viewBox="0 0 24 24">
    <title>heart</title>
    <path d="M11.929 21.459c-0.424 0-0.706-0.141-0.988-0.424l-8.047-7.906c-1.129-1.271-1.694-2.824-1.694-4.376s0.706-3.247 1.835-4.376c1.129-1.129 2.682-1.835 4.376-1.835s3.247 0.706 4.376 1.835l0.282 0.282 0.141-0.282c0 0 0 0 0 0 1.129-1.129 2.682-1.835 4.376-1.835s3.247 0.706 4.376 1.835c1.129 1.129 1.835 2.682 1.835 4.376s-0.706 3.106-1.835 4.376l-8.047 8.047c-0.282 0.141-0.565 0.282-0.988 0.282zM7.412 5.365c-0.988 0-1.835 0.282-2.4 0.988-0.706 0.565-0.988 1.412-0.988 2.4s0.282 1.694 0.988 2.4l7.059 7.059 7.059-7.059c0.706-0.706 0.988-1.553 0.988-2.4s-0.282-1.694-0.988-2.4c-1.271-1.271-3.529-1.271-4.8 0l-1.412 1.129c-0.565 0.565-1.412 0.565-1.976 0l-1.271-1.129c-0.565-0.706-1.412-0.988-2.259-0.988z"></path>
</svg>
