<!-- Generated by IcoMoon.io -->
<svg version="1.1" xmlns="http://www.w3.org/2000/svg" width="768" height="768" viewBox="0 0 768 768">
<title></title>
<g id="icomoon-ignore">
</g>
<path d="M471.483 528.465l17.728-35.328c25.856-51.52 28.704-103.296 8.096-145.664-3.904-8.064-8.864-15.328-14.176-22.176 45.152-19.808 76.864-64.832 76.864-117.248 0-70.592-57.408-128-128-128s-128 57.408-128 128c0 25.056 7.488 48.256 19.968 68.032-54.272 10.56-89.792 39.936-94.304 44-22.912 20.192-28.32 53.76-12.96 80.128 10.368 17.888 28.352 29.088 47.808 31.36l-17.728 35.328c-25.856 51.52-28.704 103.296-8.128 145.664 18.080 37.248 51.872 62.56 95.104 71.328 13.216 2.688 26.752 4.064 40.128 4.064 75.776 0 126.88-43.104 132.48-48.032 22.912-20.16 28.384-53.696 13.024-80.096-10.4-17.792-28.384-29.088-47.904-31.36zM431.995 144.049c35.328 0 64 28.672 64 64s-28.672 64-64 64c-35.36 0-64-28.672-64-64s28.64-64 64-64zM373.883 624.017c-8.672 0-17.888-0.8-27.328-2.784-52.544-10.688-74.496-61.856-42.496-125.664l32-63.84c16-31.872 15.040-52.16-3.456-65.12-5.792-4-13.792-5.408-22.048-5.408-18.464 0-38.432 6.848-38.432 6.848s36.256-32.032 89.984-32.032c8.672 0 17.92 0.8 27.392 2.784 52.48 10.688 74.496 61.856 42.496 125.664l-32 63.776c-16 31.936-15.104 52.224 3.392 65.12 5.792 4.032 13.856 5.408 22.144 5.408 18.464 0 38.4-6.784 38.4-6.784s-36.256 32.032-90.048 32.032z"></path>
</svg>
