<!-- Generated by IcoMoon.io -->
<svg version="1.1" xmlns="http://www.w3.org/2000/svg" width="24" height="24" viewBox="0 0 24 24">
<title>logout</title>
<path d="M12 22.922c-5.178 0-9.375-4.198-9.375-9.375 0-3.986 2.492-7.383 6-8.738v3.337c-1.799 1.127-3 3.121-3 5.402 0 3.52 2.855 6.375 6.375 6.375s6.375-2.855 6.375-6.375c0-1.947-0.875-3.686-2.25-4.856v-3.552c3.107 1.527 5.25 4.713 5.25 8.409 0 5.177-4.198 9.374-9.375 9.374zM12.375 12.422c-0.828 0-1.5-0.672-1.5-1.5v-8.343c0-0.828 0.672-1.5 1.5-1.5s1.5 0.672 1.5 1.5v8.344c0 0.828-0.672 1.499-1.5 1.499z"></path>
</svg>
