<!-- Generated by IcoMoon.io -->
<svg version="1.1" xmlns="http://www.w3.org/2000/svg" width="24" height="24" viewBox="0 0 24 24">
<title>mobile</title>
<path d="M3.25 22c0 1.105 0.895 2 2 2h13.5c1.105 0 2-0.895 2-2l-0-20c0-1.105-0.895-2-2-2h-13.5c-1.105 0-2 0.895-2 2v20zM6.85 2.5h10.3c0.61 0 1.1 0.49 1.1 1.1v12.3c0 0.61-0.49 1.1-1.1 1.1h-10.3c-0.61 0-1.1-0.49-1.1-1.1v-12.3c0-0.61 0.49-1.1 1.1-1.1zM10.75 20.25c0-0.69 0.56-1.25 1.25-1.25s1.25 0.56 1.25 1.25-0.56 1.25-1.25 1.25-1.25-0.56-1.25-1.25z"></path>
</svg>
