<!-- Generated by IcoMoon.io -->
<svg version="1.1" xmlns="http://www.w3.org/2000/svg" width="19" height="24" viewBox="0 0 19 24">
<title>remove</title>
<path d="M6.857 9.857v7.714c0 0.241-0.188 0.429-0.429 0.429h-0.857c-0.241 0-0.429-0.188-0.429-0.429v-7.714c0-0.241 0.188-0.429 0.429-0.429h0.857c0.241 0 0.429 0.188 0.429 0.429zM10.286 9.857v7.714c0 0.241-0.188 0.429-0.429 0.429h-0.857c-0.241 0-0.429-0.188-0.429-0.429v-7.714c0-0.241 0.188-0.429 0.429-0.429h0.857c0.241 0 0.429 0.188 0.429 0.429zM13.714 9.857v7.714c0 0.241-0.188 0.429-0.429 0.429h-0.857c-0.241 0-0.429-0.188-0.429-0.429v-7.714c0-0.241 0.188-0.429 0.429-0.429h0.857c0.241 0 0.429 0.188 0.429 0.429zM15.429 19.554v-12.696h-12v12.696c0 0.643 0.362 1.018 0.429 1.018h11.143c0.067 0 0.429-0.375 0.429-1.018zM6.429 5.143h6l-0.643-1.567c-0.040-0.054-0.161-0.134-0.228-0.147h-4.246c-0.080 0.013-0.188 0.094-0.228 0.147zM18.857 5.571v0.857c0 0.241-0.188 0.429-0.429 0.429h-1.286v12.696c0 1.473-0.964 2.732-2.143 2.732h-11.143c-1.179 0-2.143-1.205-2.143-2.679v-12.75h-1.286c-0.241 0-0.429-0.188-0.429-0.429v-0.857c0-0.241 0.188-0.429 0.429-0.429h4.138l0.938-2.237c0.268-0.656 1.071-1.192 1.781-1.192h4.286c0.71 0 1.513 0.536 1.781 1.192l0.938 2.237h4.138c0.241 0 0.429 0.188 0.429 0.429z"></path>
</svg>
