<!-- Generated by IcoMoon.io -->
<svg version="1.1" xmlns="http://www.w3.org/2000/svg" width="768" height="768" viewBox="0 0 768 768">
<title></title>
<g id="icomoon-ignore">
</g>
<path d="M694.768 465.072c18.656-18.752 27.968-43.264 27.968-67.68 0.032-24.448-9.28-49.024-27.968-67.84l-274.88-274.88c-5.792-5.76-13.792-9.344-22.624-9.344h-320c-17.664 0-32 14.336-32 32v320c0 8.192 3.136 16.384 9.376 22.656l274.944 274.624c18.752 18.72 43.392 28.096 67.904 28.064s49.152-9.408 67.84-28.128zM649.519 419.824l-229.44 229.44c-6.272 6.272-14.4 9.408-22.624 9.408s-16.384-3.104-22.624-9.344l-265.568-265.28v-274.72h274.752l265.504 265.504c6.144 6.176 9.248 14.304 9.248 22.528 0 8.192-3.104 16.288-9.248 22.464zM237.264 269.328c17.664 0 32-14.336 32-32s-14.336-32-32-32-32 14.336-32 32 14.336 32 32 32z"></path>
</svg>
