<!-- Generated by IcoMoon.io -->
<svg version="1.1" xmlns="http://www.w3.org/2000/svg" width="22" height="24" viewBox="0 0 22 24">
<title>twitter</title>
<path d="M21.696 5.464c-0.589 0.857-1.326 1.621-2.17 2.237 0.013 0.188 0.013 0.375 0.013 0.563 0 5.719-4.353 12.308-12.308 12.308-2.451 0-4.728-0.71-6.643-1.942 0.348 0.040 0.683 0.054 1.045 0.054 2.022 0 3.884-0.683 5.371-1.848-1.902-0.040-3.496-1.286-4.045-3 0.268 0.040 0.536 0.067 0.817 0.067 0.388 0 0.777-0.054 1.138-0.147-1.982-0.402-3.469-2.143-3.469-4.246v-0.054c0.576 0.321 1.246 0.522 1.955 0.549-1.165-0.777-1.929-2.103-1.929-3.603 0-0.804 0.214-1.54 0.589-2.183 2.129 2.625 5.33 4.339 8.92 4.527-0.067-0.321-0.107-0.656-0.107-0.991 0-2.384 1.929-4.326 4.326-4.326 1.246 0 2.371 0.522 3.161 1.366 0.978-0.188 1.915-0.549 2.746-1.045-0.321 1.004-1.004 1.848-1.902 2.384 0.871-0.094 1.714-0.335 2.491-0.67z"></path>
</svg>
